# xmcd CD database file
#
# Track frame offsets:
#	150
#	14532
#	42932
#	68467
#	84422
#	101037
#	121207
#	139405
#	148847
#	164395
#	186715
#
# Disc length: 2842 seconds
#
# Revision: 0
# Processed by: cddbd v1.5PL3 Copyright (c) Steve Scherf et al.
# Submitted via: CDex 1.50beta9
#
DISCID=9f0b180b
DTITLE=Begin - Used
DYEAR=1900
DGENRE=Bluegrass
TTITLE0=マリーナ
TTITLE1=イラヨイ月夜浜
TTITLE2=On The Road
TTITLE3=Bye Bye My Love
TTITLE4=ああ この胸のマルガリータ
TTITLE5='Au I Ke Kai Loa
TTITLE6=夢の小路
TTITLE7=Kids Rag
TTITLE8=ひかり Express Blues
TTITLE9=満天の星
TTITLE10=I Shall Be Released
EXTD=
EXTT0=
EXTT1=
EXTT2=
EXTT3=
EXTT4=
EXTT5=
EXTT6=
EXTT7=
EXTT8=
EXTT9=
EXTT10=
PLAYORDER=
